<?xml version="1.0" encoding="us-ascii" standalone="no"?><svg xmlns="http://www.w3.org/2000/svg" xmlns:xlink="http://www.w3.org/1999/xlink" contentStyleType="text/css" height="1227px" preserveAspectRatio="none" style="width:2382px;height:1227px;background:#FFFFFF;" version="1.1" viewBox="0 0 2382 1227" width="2382px" zoomAndPan="magnify"><defs><filter height="300%" id="f4kb2p149filh" width="300%" x="-1" y="-1"><feGaussianBlur result="blurOut" stdDeviation="2.0"/><feColorMatrix in="blurOut" result="blurOut2" type="matrix" values="0 0 0 0 0 0 0 0 0 0 0 0 0 0 0 0 0 0 .4 0"/><feOffset dx="4.0" dy="4.0" in="blurOut2" result="blurOut3"/><feBlend in="SourceGraphic" in2="blurOut3" mode="normal"/></filter></defs><g><text fill="#000000" font-family="sans-serif" font-size="14" font-weight="bold" lengthAdjust="spacing" textLength="152" x="1108.25" y="22.9951">City-building game</text><!--cluster GameControll--><g id="cluster_GameControll"><rect fill="none" filter="url(#f4kb2p149filh)" height="934.5" style="stroke:#A80036;stroke-width:1.0;" width="435" x="145.5" y="239.7969"/><path d="M266.5,239.7969 L266.5,249.0938 L256.5,259.0938 L145.5,259.0938 " fill="none" style="stroke:#A80036;stroke-width:1.0;"/><text fill="#000000" font-family="sans-serif" font-size="14" font-weight="bold" lengthAdjust="spacing" textLength="111" x="148.5" y="253.792">GameControll</text></g><!--cluster Map--><g id="cluster_Map"><rect fill="none" filter="url(#f4kb2p149filh)" height="639.5" style="stroke:#A80036;stroke-width:1.0;" width="384" x="1186.5" y="575.7969"/><path d="M1230.5,575.7969 L1230.5,585.0938 L1220.5,595.0938 L1186.5,595.0938 " fill="none" style="stroke:#A80036;stroke-width:1.0;"/><text fill="#000000" font-family="sans-serif" font-size="14" font-weight="bold" lengthAdjust="spacing" textLength="34" x="1189.5" y="589.792">Map</text></g><!--cluster Buildings--><g id="cluster_Buildings"><rect fill="none" filter="url(#f4kb2p149filh)" height="558" style="stroke:#A80036;stroke-width:1.0;" width="776" x="1594.5" y="231.2969"/><path d="M1679.5,231.2969 L1679.5,240.5938 L1669.5,250.5938 L1594.5,250.5938 " fill="none" style="stroke:#A80036;stroke-width:1.0;"/><text fill="#000000" font-family="sans-serif" font-size="14" font-weight="bold" lengthAdjust="spacing" textLength="75" x="1597.5" y="245.292">Buildings</text></g><!--cluster Event--><g id="cluster_Event"><rect fill="none" filter="url(#f4kb2p149filh)" height="557.5" style="stroke:#A80036;stroke-width:1.0;" width="550" x="612.5" y="255.7969"/><path d="M667.5,255.7969 L667.5,265.0938 L657.5,275.0938 L612.5,275.0938 " fill="none" style="stroke:#A80036;stroke-width:1.0;"/><text fill="#000000" font-family="sans-serif" font-size="14" font-weight="bold" lengthAdjust="spacing" textLength="45" x="615.5" y="269.792">Event</text></g><!--class CRenderWindow--><g id="elem_CRenderWindow"><rect codeLine="7" fill="#FEFECE" filter="url(#f4kb2p149filh)" height="210.9688" id="CRenderWindow" style="stroke:#A80036;stroke-width:1.0;" width="368" x="188.5" y="282.7969"/><ellipse cx="309.25" cy="298.7969" fill="#ADD1B2" rx="11" ry="11" style="stroke:#A80036;stroke-width:1.0;"/><path d="M311.5938,294.4688 C310.6563,294.0313 310.0625,293.8906 309.1875,293.8906 C306.5625,293.8906 304.5625,295.9688 304.5625,298.6875 L304.5625,299.8125 C304.5625,302.3906 306.6719,304.2813 309.5625,304.2813 C310.7813,304.2813 311.9375,303.9844 312.6875,303.4375 C313.2656,303.0313 313.5938,302.5781 313.5938,302.1875 C313.5938,301.7344 313.2031,301.3438 312.7344,301.3438 C312.5156,301.3438 312.3125,301.4219 312.125,301.6094 C311.6719,302.0938 311.6719,302.0938 311.4844,302.1875 C311.0625,302.4531 310.375,302.5781 309.6094,302.5781 C307.5625,302.5781 306.2656,301.4844 306.2656,299.7813 L306.2656,298.6875 C306.2656,296.9063 307.5156,295.5938 309.25,295.5938 C309.8281,295.5938 310.4375,295.75 310.9063,296 C311.3906,296.2813 311.5625,296.5 311.6563,296.9063 C311.7188,297.3125 311.75,297.4375 311.8906,297.5625 C312.0313,297.7031 312.2656,297.8125 312.4844,297.8125 C312.75,297.8125 313.0156,297.6719 313.1875,297.4531 C313.2969,297.2969 313.3281,297.1094 313.3281,296.6875 L313.3281,295.2656 C313.3281,294.8281 313.3125,294.7031 313.2188,294.5469 C313.0625,294.2813 312.7813,294.1406 312.4844,294.1406 C312.1875,294.1406 311.9844,294.2344 311.7656,294.5469 L311.5938,294.4688 Z " fill="#000000"/><text fill="#000000" font-family="sans-serif" font-size="14" lengthAdjust="spacing" textLength="118" x="329.75" y="303.6436">CRenderWindow</text><line style="stroke:#A80036;stroke-width:1.0;" x1="189.5" x2="555.5" y1="314.7969" y2="314.7969"/><text fill="#000000" font-family="sans-serif" font-size="14" lengthAdjust="spacing" textLength="180" x="194.5" y="331.792">SDL_Window * m_window</text><text fill="#000000" font-family="sans-serif" font-size="14" lengthAdjust="spacing" textLength="201" x="194.5" y="348.0889">SDL_Renderer * m_renderer</text><line style="stroke:#A80036;stroke-width:1.0;" x1="189.5" x2="555.5" y1="355.3906" y2="355.3906"/><text fill="#000000" font-family="sans-serif" font-size="14" lengthAdjust="spacing" textLength="333" x="194.5" y="372.3857">CRenderWindow(const char * title, int w, int h)</text><text fill="#000000" font-family="sans-serif" font-size="14" lengthAdjust="spacing" textLength="139" x="194.5" y="388.6826">~CRenderWindow()</text><text fill="#000000" font-family="sans-serif" font-size="14" lengthAdjust="spacing" textLength="356" x="194.5" y="404.9795">SDL_Texture * loadTexture(const char * file_path)</text><text fill="#000000" font-family="sans-serif" font-size="14" lengthAdjust="spacing" textLength="129" x="194.5" y="421.2764">void clearScreen()</text><text fill="#000000" font-family="sans-serif" font-size="14" lengthAdjust="spacing" textLength="129" x="194.5" y="437.5732">void render(T &amp; h)</text><text fill="#000000" font-family="sans-serif" font-size="14" lengthAdjust="spacing" textLength="94" x="194.5" y="453.8701">void display()</text><text fill="#000000" font-family="sans-serif" font-size="14" lengthAdjust="spacing" textLength="118" x="194.5" y="470.167">void saveWorld()</text><text fill="#000000" font-family="sans-serif" font-size="14" lengthAdjust="spacing" textLength="116" x="194.5" y="486.4639">void loadWorld()</text></g><!--class CGameManager--><g id="elem_CGameManager"><rect codeLine="19" fill="#FEFECE" filter="url(#f4kb2p149filh)" height="325.0469" id="CGameManager" style="stroke:#A80036;stroke-width:1.0;" width="231" x="325" y="570.2969"/><ellipse cx="379.75" cy="586.2969" fill="#ADD1B2" rx="11" ry="11" style="stroke:#A80036;stroke-width:1.0;"/><path d="M382.0938,581.9688 C381.1563,581.5313 380.5625,581.3906 379.6875,581.3906 C377.0625,581.3906 375.0625,583.4688 375.0625,586.1875 L375.0625,587.3125 C375.0625,589.8906 377.1719,591.7813 380.0625,591.7813 C381.2813,591.7813 382.4375,591.4844 383.1875,590.9375 C383.7656,590.5313 384.0938,590.0781 384.0938,589.6875 C384.0938,589.2344 383.7031,588.8438 383.2344,588.8438 C383.0156,588.8438 382.8125,588.9219 382.625,589.1094 C382.1719,589.5938 382.1719,589.5938 381.9844,589.6875 C381.5625,589.9531 380.875,590.0781 380.1094,590.0781 C378.0625,590.0781 376.7656,588.9844 376.7656,587.2813 L376.7656,586.1875 C376.7656,584.4063 378.0156,583.0938 379.75,583.0938 C380.3281,583.0938 380.9375,583.25 381.4063,583.5 C381.8906,583.7813 382.0625,584 382.1563,584.4063 C382.2188,584.8125 382.25,584.9375 382.3906,585.0625 C382.5313,585.2031 382.7656,585.3125 382.9844,585.3125 C383.25,585.3125 383.5156,585.1719 383.6875,584.9531 C383.7969,584.7969 383.8281,584.6094 383.8281,584.1875 L383.8281,582.7656 C383.8281,582.3281 383.8125,582.2031 383.7188,582.0469 C383.5625,581.7813 383.2813,581.6406 382.9844,581.6406 C382.6875,581.6406 382.4844,581.7344 382.2656,582.0469 L382.0938,581.9688 Z " fill="#000000"/><text fill="#000000" font-family="sans-serif" font-size="14" lengthAdjust="spacing" textLength="113" x="400.25" y="591.1436">CGameManager</text><line style="stroke:#A80036;stroke-width:1.0;" x1="326" x2="555" y1="602.2969" y2="602.2969"/><text fill="#000000" font-family="sans-serif" font-size="14" lengthAdjust="spacing" textLength="157" x="331" y="619.292">CPlayerState m_state</text><text fill="#000000" font-family="sans-serif" font-size="14" lengthAdjust="spacing" textLength="219" x="331" y="635.5889">CRenderWindow m_windowobj</text><text fill="#000000" font-family="sans-serif" font-size="14" lengthAdjust="spacing" textLength="149" x="331" y="651.8857">CTilemap m_tilemap</text><text fill="#000000" font-family="sans-serif" font-size="14" lengthAdjust="spacing" textLength="136" x="331" y="668.1826">vector&lt;CBuilding&gt;</text><text fill="#000000" font-family="sans-serif" font-size="14" lengthAdjust="spacing" textLength="214" x="331" y="684.4795">vector&lt;unique_ptr&lt;IEvent&gt;&gt;</text><line style="stroke:#A80036;stroke-width:1.0;" x1="326" x2="555" y1="691.7813" y2="691.7813"/><text fill="#000000" font-family="sans-serif" font-size="14" lengthAdjust="spacing" textLength="87" x="331" y="708.7764">startGame()</text><text fill="#000000" font-family="sans-serif" font-size="14" lengthAdjust="spacing" textLength="94" x="331" y="725.0732">pauseGame()</text><text fill="#000000" font-family="sans-serif" font-size="14" lengthAdjust="spacing" textLength="105" x="331" y="741.3701">resumeGame()</text><text fill="#000000" font-family="sans-serif" font-size="14" lengthAdjust="spacing" textLength="79" x="331" y="757.667">endGame()</text><text fill="#000000" font-family="sans-serif" font-size="14" lengthAdjust="spacing" textLength="93" x="331" y="773.9639">addBuilding()</text><text fill="#000000" font-family="sans-serif" font-size="14" lengthAdjust="spacing" textLength="122" x="331" y="790.2607">removeBuilding()</text><text fill="#000000" font-family="sans-serif" font-size="14" lengthAdjust="spacing" textLength="143" x="331" y="806.5576">updateGameState()</text><text fill="#000000" font-family="sans-serif" font-size="14" lengthAdjust="spacing" textLength="96" x="331" y="822.8545">handleInput()</text><text fill="#000000" font-family="sans-serif" font-size="14" lengthAdjust="spacing" textLength="107" x="331" y="839.1514">handleEvents()</text><text fill="#000000" font-family="sans-serif" font-size="14" lengthAdjust="spacing" textLength="100" x="331" y="855.4482">renderGame()</text><text fill="#000000" font-family="sans-serif" font-size="14" lengthAdjust="spacing" textLength="84" x="331" y="871.7451">saveGame()</text><text fill="#000000" font-family="sans-serif" font-size="14" lengthAdjust="spacing" textLength="82" x="331" y="888.042">loadGame()</text></g><!--class CPlayerState--><g id="elem_CPlayerState"><rect codeLine="38" fill="#FEFECE" filter="url(#f4kb2p149filh)" height="145.7813" id="CPlayerState" style="stroke:#A80036;stroke-width:1.0;" width="126" x="377.5" y="1004.2969"/><ellipse cx="392.5" cy="1020.2969" fill="#ADD1B2" rx="11" ry="11" style="stroke:#A80036;stroke-width:1.0;"/><path d="M394.8438,1015.9688 C393.9063,1015.5313 393.3125,1015.3906 392.4375,1015.3906 C389.8125,1015.3906 387.8125,1017.4688 387.8125,1020.1875 L387.8125,1021.3125 C387.8125,1023.8906 389.9219,1025.7813 392.8125,1025.7813 C394.0313,1025.7813 395.1875,1025.4844 395.9375,1024.9375 C396.5156,1024.5313 396.8438,1024.0781 396.8438,1023.6875 C396.8438,1023.2344 396.4531,1022.8438 395.9844,1022.8438 C395.7656,1022.8438 395.5625,1022.9219 395.375,1023.1094 C394.9219,1023.5938 394.9219,1023.5938 394.7344,1023.6875 C394.3125,1023.9531 393.625,1024.0781 392.8594,1024.0781 C390.8125,1024.0781 389.5156,1022.9844 389.5156,1021.2813 L389.5156,1020.1875 C389.5156,1018.4063 390.7656,1017.0938 392.5,1017.0938 C393.0781,1017.0938 393.6875,1017.25 394.1563,1017.5 C394.6406,1017.7813 394.8125,1018 394.9063,1018.4063 C394.9688,1018.8125 395,1018.9375 395.1406,1019.0625 C395.2813,1019.2031 395.5156,1019.3125 395.7344,1019.3125 C396,1019.3125 396.2656,1019.1719 396.4375,1018.9531 C396.5469,1018.7969 396.5781,1018.6094 396.5781,1018.1875 L396.5781,1016.7656 C396.5781,1016.3281 396.5625,1016.2031 396.4688,1016.0469 C396.3125,1015.7813 396.0313,1015.6406 395.7344,1015.6406 C395.4375,1015.6406 395.2344,1015.7344 395.0156,1016.0469 L394.8438,1015.9688 Z " fill="#000000"/><text fill="#000000" font-family="sans-serif" font-size="14" lengthAdjust="spacing" textLength="94" x="406.5" y="1025.1436">CPlayerState</text><line style="stroke:#A80036;stroke-width:1.0;" x1="378.5" x2="502.5" y1="1036.2969" y2="1036.2969"/><text fill="#000000" font-family="sans-serif" font-size="14" lengthAdjust="spacing" textLength="63" x="383.5" y="1053.292">int score</text><text fill="#000000" font-family="sans-serif" font-size="14" lengthAdjust="spacing" textLength="96" x="383.5" y="1069.5889">int resourceA</text><text fill="#000000" font-family="sans-serif" font-size="14" lengthAdjust="spacing" textLength="96" x="383.5" y="1085.8857">int resourceB</text><text fill="#000000" font-family="sans-serif" font-size="14" lengthAdjust="spacing" textLength="15" x="383.5" y="1102.1826">...</text><line style="stroke:#A80036;stroke-width:1.0;" x1="378.5" x2="502.5" y1="1109.4844" y2="1109.4844"/><text fill="#000000" font-family="sans-serif" font-size="14" lengthAdjust="spacing" textLength="114" x="383.5" y="1126.4795">void savestate()</text><text fill="#000000" font-family="sans-serif" font-size="14" lengthAdjust="spacing" textLength="112" x="383.5" y="1142.7764">void loadstate()</text></g><!--class CTilemap--><g id="elem_CTilemap"><rect codeLine="53" fill="#FEFECE" filter="url(#f4kb2p149filh)" height="243.5625" id="CTilemap" style="stroke:#A80036;stroke-width:1.0;" width="319" x="1211" y="955.2969"/><ellipse cx="1332.25" cy="971.2969" fill="#ADD1B2" rx="11" ry="11" style="stroke:#A80036;stroke-width:1.0;"/><path d="M1334.5938,966.9688 C1333.6563,966.5313 1333.0625,966.3906 1332.1875,966.3906 C1329.5625,966.3906 1327.5625,968.4688 1327.5625,971.1875 L1327.5625,972.3125 C1327.5625,974.8906 1329.6719,976.7813 1332.5625,976.7813 C1333.7813,976.7813 1334.9375,976.4844 1335.6875,975.9375 C1336.2656,975.5313 1336.5938,975.0781 1336.5938,974.6875 C1336.5938,974.2344 1336.2031,973.8438 1335.7344,973.8438 C1335.5156,973.8438 1335.3125,973.9219 1335.125,974.1094 C1334.6719,974.5938 1334.6719,974.5938 1334.4844,974.6875 C1334.0625,974.9531 1333.375,975.0781 1332.6094,975.0781 C1330.5625,975.0781 1329.2656,973.9844 1329.2656,972.2813 L1329.2656,971.1875 C1329.2656,969.4063 1330.5156,968.0938 1332.25,968.0938 C1332.8281,968.0938 1333.4375,968.25 1333.9063,968.5 C1334.3906,968.7813 1334.5625,969 1334.6563,969.4063 C1334.7188,969.8125 1334.75,969.9375 1334.8906,970.0625 C1335.0313,970.2031 1335.2656,970.3125 1335.4844,970.3125 C1335.75,970.3125 1336.0156,970.1719 1336.1875,969.9531 C1336.2969,969.7969 1336.3281,969.6094 1336.3281,969.1875 L1336.3281,967.7656 C1336.3281,967.3281 1336.3125,967.2031 1336.2188,967.0469 C1336.0625,966.7813 1335.7813,966.6406 1335.4844,966.6406 C1335.1875,966.6406 1334.9844,966.7344 1334.7656,967.0469 L1334.5938,966.9688 Z " fill="#000000"/><text fill="#000000" font-family="sans-serif" font-size="14" lengthAdjust="spacing" textLength="68" x="1352.75" y="976.1436">CTilemap</text><line style="stroke:#A80036;stroke-width:1.0;" x1="1212" x2="1529" y1="987.2969" y2="987.2969"/><text fill="#000000" font-family="sans-serif" font-size="14" lengthAdjust="spacing" textLength="230" x="1217" y="1004.292">vector&lt;vector&lt;CTile&gt;&gt; m_tiles</text><text fill="#000000" font-family="sans-serif" font-size="14" lengthAdjust="spacing" textLength="270" x="1217" y="1020.5889">int m_tileSize "like a side of a square"</text><text fill="#000000" font-family="sans-serif" font-size="14" lengthAdjust="spacing" textLength="85" x="1217" y="1036.8857">int m_width</text><text fill="#000000" font-family="sans-serif" font-size="14" lengthAdjust="spacing" textLength="92" x="1217" y="1053.1826">int m_height</text><line style="stroke:#A80036;stroke-width:1.0;" x1="1212" x2="1529" y1="1060.4844" y2="1060.4844"/><text fill="#000000" font-family="sans-serif" font-size="14" lengthAdjust="spacing" textLength="307" x="1217" y="1077.4795">CTilemap(int width, int height, int tileSize)</text><text fill="#000000" font-family="sans-serif" font-size="14" lengthAdjust="spacing" textLength="89" x="1217" y="1093.7764">~CTilemap()</text><text fill="#000000" font-family="sans-serif" font-size="14" lengthAdjust="spacing" textLength="244" x="1217" y="1110.0732">void setTile(int x, int y, CTile *tile)</text><text fill="#000000" font-family="sans-serif" font-size="14" lengthAdjust="spacing" textLength="224" x="1217" y="1126.3701">CTile *getTile(int x, int y) const</text><text fill="#000000" font-family="sans-serif" font-size="14" lengthAdjust="spacing" textLength="146" x="1217" y="1142.667">int getWidth() const</text><text fill="#000000" font-family="sans-serif" font-size="14" lengthAdjust="spacing" textLength="151" x="1217" y="1158.9639">int getHeight() const</text><text fill="#000000" font-family="sans-serif" font-size="14" lengthAdjust="spacing" textLength="159" x="1217" y="1175.2607">int getTileSize() const</text><text fill="#000000" font-family="sans-serif" font-size="14" lengthAdjust="spacing" textLength="278" x="1217" y="1191.5576">void render(CRenderWindow &amp;window)</text></g><!--class CTile--><g id="elem_CTile"><rect codeLine="68" fill="#FEFECE" filter="url(#f4kb2p149filh)" height="243.5625" id="CTile" style="stroke:#A80036;stroke-width:1.0;" width="352" x="1202.5" y="610.7969"/><ellipse cx="1356.25" cy="626.7969" fill="#ADD1B2" rx="11" ry="11" style="stroke:#A80036;stroke-width:1.0;"/><path d="M1358.5938,622.4688 C1357.6563,622.0313 1357.0625,621.8906 1356.1875,621.8906 C1353.5625,621.8906 1351.5625,623.9688 1351.5625,626.6875 L1351.5625,627.8125 C1351.5625,630.3906 1353.6719,632.2813 1356.5625,632.2813 C1357.7813,632.2813 1358.9375,631.9844 1359.6875,631.4375 C1360.2656,631.0313 1360.5938,630.5781 1360.5938,630.1875 C1360.5938,629.7344 1360.2031,629.3438 1359.7344,629.3438 C1359.5156,629.3438 1359.3125,629.4219 1359.125,629.6094 C1358.6719,630.0938 1358.6719,630.0938 1358.4844,630.1875 C1358.0625,630.4531 1357.375,630.5781 1356.6094,630.5781 C1354.5625,630.5781 1353.2656,629.4844 1353.2656,627.7813 L1353.2656,626.6875 C1353.2656,624.9063 1354.5156,623.5938 1356.25,623.5938 C1356.8281,623.5938 1357.4375,623.75 1357.9063,624 C1358.3906,624.2813 1358.5625,624.5 1358.6563,624.9063 C1358.7188,625.3125 1358.75,625.4375 1358.8906,625.5625 C1359.0313,625.7031 1359.2656,625.8125 1359.4844,625.8125 C1359.75,625.8125 1360.0156,625.6719 1360.1875,625.4531 C1360.2969,625.2969 1360.3281,625.1094 1360.3281,624.6875 L1360.3281,623.2656 C1360.3281,622.8281 1360.3125,622.7031 1360.2188,622.5469 C1360.0625,622.2813 1359.7813,622.1406 1359.4844,622.1406 C1359.1875,622.1406 1358.9844,622.2344 1358.7656,622.5469 L1358.5938,622.4688 Z " fill="#000000"/><text fill="#000000" font-family="sans-serif" font-size="14" lengthAdjust="spacing" textLength="36" x="1376.75" y="631.6436">CTile</text><line style="stroke:#A80036;stroke-width:1.0;" x1="1203.5" x2="1553.5" y1="642.7969" y2="642.7969"/><text fill="#000000" font-family="sans-serif" font-size="14" lengthAdjust="spacing" textLength="82" x="1208.5" y="659.792">double m_x</text><text fill="#000000" font-family="sans-serif" font-size="14" lengthAdjust="spacing" textLength="82" x="1208.5" y="676.0889">double m_y</text><text fill="#000000" font-family="sans-serif" font-size="14" lengthAdjust="spacing" textLength="181" x="1208.5" y="692.3857">SDL_Texture * m_texture</text><text fill="#000000" font-family="sans-serif" font-size="14" lengthAdjust="spacing" textLength="160" x="1208.5" y="708.6826">CBuilding * m_building</text><line style="stroke:#A80036;stroke-width:1.0;" x1="1203.5" x2="1553.5" y1="715.9844" y2="715.9844"/><text fill="#000000" font-family="sans-serif" font-size="14" lengthAdjust="spacing" textLength="340" x="1208.5" y="732.9795">CTile(double x, double y, SDL_Texture *texture)</text><text fill="#000000" font-family="sans-serif" font-size="14" lengthAdjust="spacing" textLength="57" x="1208.5" y="749.2764">~CTile()</text><text fill="#000000" font-family="sans-serif" font-size="14" lengthAdjust="spacing" textLength="259" x="1208.5" y="765.5732">void setBuilding(CBuilding *building)</text><text fill="#000000" font-family="sans-serif" font-size="14" lengthAdjust="spacing" textLength="214" x="1208.5" y="781.8701">CBuilding *getBuilding() const</text><text fill="#000000" font-family="sans-serif" font-size="14" lengthAdjust="spacing" textLength="142" x="1208.5" y="798.167">double getX() const</text><text fill="#000000" font-family="sans-serif" font-size="14" lengthAdjust="spacing" textLength="141" x="1208.5" y="814.4639">double getY() const</text><text fill="#000000" font-family="sans-serif" font-size="14" lengthAdjust="spacing" textLength="237" x="1208.5" y="830.7607">SDL_Texture *getTexture() const</text><text fill="#000000" font-family="sans-serif" font-size="14" lengthAdjust="spacing" textLength="278" x="1208.5" y="847.0576">void render(CRenderWindow &amp;window)</text></g><!--class CBuilding--><g id="elem_CBuilding"><rect codeLine="84" fill="#FEFECE" filter="url(#f4kb2p149filh)" height="243.5625" id="CBuilding" style="stroke:#A80036;stroke-width:1.0;" width="171" x="1719" y="266.2969"/><ellipse cx="1766.25" cy="282.2969" fill="#A9DCDF" rx="11" ry="11" style="stroke:#A80036;stroke-width:1.0;"/><path d="M1768.3281,284.1094 L1768.7188,285.0938 L1768.3281,285.0938 C1767.875,285.0938 1767.7656,285.1094 1767.6094,285.2188 C1767.3594,285.375 1767.2031,285.6563 1767.2031,285.9531 C1767.2031,286.2188 1767.3438,286.4688 1767.5625,286.625 C1767.7031,286.75 1767.9063,286.7969 1768.3281,286.7969 L1770.6875,286.7969 C1771.0469,286.7969 1771.2656,286.7656 1771.4063,286.6719 C1771.6563,286.5313 1771.8125,286.2344 1771.8125,285.9531 C1771.8125,285.6719 1771.6719,285.4219 1771.4531,285.2656 C1771.2813,285.125 1771.125,285.0938 1770.6563,285.0938 L1767.2656,276.8906 L1763.5938,276.8906 C1763.1406,276.8906 1763.0156,276.9063 1762.8594,277 C1762.6094,277.1719 1762.4531,277.4531 1762.4531,277.7344 C1762.4531,278.0156 1762.5938,278.2656 1762.8125,278.4375 C1762.9844,278.5469 1763.1563,278.5781 1763.5938,278.5781 L1764.6719,278.5781 L1762.0313,285.0938 C1761.6094,285.0938 1761.4531,285.1094 1761.2969,285.2188 C1761.0469,285.375 1760.8906,285.6563 1760.8906,285.9531 C1760.8906,286.5156 1761.2656,286.7969 1762.0156,286.7969 L1764.2813,286.7969 C1764.6406,286.7969 1764.8594,286.7656 1764.9844,286.6719 C1765.25,286.5313 1765.3906,286.2344 1765.3906,285.9531 C1765.3906,285.6719 1765.2656,285.4219 1765.0469,285.25 C1764.875,285.125 1764.7344,285.0938 1764.2813,285.0938 L1763.8906,285.0938 L1764.2813,284.1094 L1768.3281,284.1094 Z M1767.625,282.4063 L1764.9531,282.4063 L1766.2969,279.1406 L1767.625,282.4063 Z " fill="#000000"/><text fill="#000000" font-family="sans-serif" font-size="14" font-style="italic" lengthAdjust="spacing" textLength="68" x="1786.75" y="287.1436">CBuilding</text><line style="stroke:#A80036;stroke-width:1.0;" x1="1720" x2="1889" y1="298.2969" y2="298.2969"/><text fill="#000000" font-family="sans-serif" font-size="14" lengthAdjust="spacing" textLength="76" x="1725" y="315.292">int m_cost</text><text fill="#000000" font-family="sans-serif" font-size="14" lengthAdjust="spacing" textLength="93" x="1725" y="331.5889">int m_inputA</text><text fill="#000000" font-family="sans-serif" font-size="14" lengthAdjust="spacing" textLength="93" x="1725" y="347.8857">int m_inputB</text><text fill="#000000" font-family="sans-serif" font-size="14" lengthAdjust="spacing" textLength="104" x="1725" y="364.1826">int m_outputA</text><text fill="#000000" font-family="sans-serif" font-size="14" lengthAdjust="spacing" textLength="104" x="1725" y="380.4795">int m_outputB</text><text fill="#000000" font-family="sans-serif" font-size="14" lengthAdjust="spacing" textLength="136" x="1725" y="396.7764">int m_numWorkers</text><text fill="#000000" font-family="sans-serif" font-size="14" lengthAdjust="spacing" textLength="101" x="1725" y="413.0732">bool m_isBuilt</text><line style="stroke:#A80036;stroke-width:1.0;" x1="1720" x2="1889" y1="420.375" y2="420.375"/><text fill="#000000" font-family="sans-serif" font-size="14" lengthAdjust="spacing" textLength="79" x="1725" y="437.3701">void Build()</text><text fill="#000000" font-family="sans-serif" font-size="14" lengthAdjust="spacing" textLength="104" x="1725" y="453.667">void Upgrade()</text><text fill="#000000" font-family="sans-serif" font-size="14" lengthAdjust="spacing" textLength="111" x="1725" y="469.9639">void Demolish()</text><text fill="#000000" font-family="sans-serif" font-size="14" lengthAdjust="spacing" textLength="143" x="1725" y="486.2607">void AssignWorker()</text><text fill="#000000" font-family="sans-serif" font-size="14" lengthAdjust="spacing" textLength="159" x="1725" y="502.5576">void UnassignWorker()</text></g><!--class CHouse--><g id="elem_CHouse"><rect codeLine="98" fill="#FEFECE" filter="url(#f4kb2p149filh)" height="80.5938" id="CHouse" style="stroke:#A80036;stroke-width:1.0;" width="184" x="1610.5" y="692.2969"/><ellipse cx="1671.75" cy="708.2969" fill="#ADD1B2" rx="11" ry="11" style="stroke:#A80036;stroke-width:1.0;"/><path d="M1674.0938,703.9688 C1673.1563,703.5313 1672.5625,703.3906 1671.6875,703.3906 C1669.0625,703.3906 1667.0625,705.4688 1667.0625,708.1875 L1667.0625,709.3125 C1667.0625,711.8906 1669.1719,713.7813 1672.0625,713.7813 C1673.2813,713.7813 1674.4375,713.4844 1675.1875,712.9375 C1675.7656,712.5313 1676.0938,712.0781 1676.0938,711.6875 C1676.0938,711.2344 1675.7031,710.8438 1675.2344,710.8438 C1675.0156,710.8438 1674.8125,710.9219 1674.625,711.1094 C1674.1719,711.5938 1674.1719,711.5938 1673.9844,711.6875 C1673.5625,711.9531 1672.875,712.0781 1672.1094,712.0781 C1670.0625,712.0781 1668.7656,710.9844 1668.7656,709.2813 L1668.7656,708.1875 C1668.7656,706.4063 1670.0156,705.0938 1671.75,705.0938 C1672.3281,705.0938 1672.9375,705.25 1673.4063,705.5 C1673.8906,705.7813 1674.0625,706 1674.1563,706.4063 C1674.2188,706.8125 1674.25,706.9375 1674.3906,707.0625 C1674.5313,707.2031 1674.7656,707.3125 1674.9844,707.3125 C1675.25,707.3125 1675.5156,707.1719 1675.6875,706.9531 C1675.7969,706.7969 1675.8281,706.6094 1675.8281,706.1875 L1675.8281,704.7656 C1675.8281,704.3281 1675.8125,704.2031 1675.7188,704.0469 C1675.5625,703.7813 1675.2813,703.6406 1674.9844,703.6406 C1674.6875,703.6406 1674.4844,703.7344 1674.2656,704.0469 L1674.0938,703.9688 Z " fill="#000000"/><text fill="#000000" font-family="sans-serif" font-size="14" lengthAdjust="spacing" textLength="53" x="1692.25" y="713.1436">CHouse</text><line style="stroke:#A80036;stroke-width:1.0;" x1="1611.5" x2="1793.5" y1="724.2969" y2="724.2969"/><text fill="#000000" font-family="sans-serif" font-size="14" lengthAdjust="spacing" textLength="147" x="1616.5" y="741.292">int m_numResidents</text><line style="stroke:#A80036;stroke-width:1.0;" x1="1611.5" x2="1793.5" y1="748.5938" y2="748.5938"/><text fill="#000000" font-family="sans-serif" font-size="14" lengthAdjust="spacing" textLength="172" x="1616.5" y="765.5889">void SetNumResidents()</text></g><!--class CLumberjack--><g id="elem_CLumberjack"><rect codeLine="102" fill="#FEFECE" filter="url(#f4kb2p149filh)" height="80.5938" id="CLumberjack" style="stroke:#A80036;stroke-width:1.0;" width="153" x="1830" y="692.2969"/><ellipse cx="1857.15" cy="708.2969" fill="#ADD1B2" rx="11" ry="11" style="stroke:#A80036;stroke-width:1.0;"/><path d="M1859.4938,703.9688 C1858.5563,703.5313 1857.9625,703.3906 1857.0875,703.3906 C1854.4625,703.3906 1852.4625,705.4688 1852.4625,708.1875 L1852.4625,709.3125 C1852.4625,711.8906 1854.5719,713.7813 1857.4625,713.7813 C1858.6813,713.7813 1859.8375,713.4844 1860.5875,712.9375 C1861.1656,712.5313 1861.4938,712.0781 1861.4938,711.6875 C1861.4938,711.2344 1861.1031,710.8438 1860.6344,710.8438 C1860.4156,710.8438 1860.2125,710.9219 1860.025,711.1094 C1859.5719,711.5938 1859.5719,711.5938 1859.3844,711.6875 C1858.9625,711.9531 1858.275,712.0781 1857.5094,712.0781 C1855.4625,712.0781 1854.1656,710.9844 1854.1656,709.2813 L1854.1656,708.1875 C1854.1656,706.4063 1855.4156,705.0938 1857.15,705.0938 C1857.7281,705.0938 1858.3375,705.25 1858.8063,705.5 C1859.2906,705.7813 1859.4625,706 1859.5563,706.4063 C1859.6188,706.8125 1859.65,706.9375 1859.7906,707.0625 C1859.9313,707.2031 1860.1656,707.3125 1860.3844,707.3125 C1860.65,707.3125 1860.9156,707.1719 1861.0875,706.9531 C1861.1969,706.7969 1861.2281,706.6094 1861.2281,706.1875 L1861.2281,704.7656 C1861.2281,704.3281 1861.2125,704.2031 1861.1188,704.0469 C1860.9625,703.7813 1860.6813,703.6406 1860.3844,703.6406 C1860.0875,703.6406 1859.8844,703.7344 1859.6656,704.0469 L1859.4938,703.9688 Z " fill="#000000"/><text fill="#000000" font-family="sans-serif" font-size="14" lengthAdjust="spacing" textLength="94" x="1873.85" y="713.1436">CLumberjack</text><line style="stroke:#A80036;stroke-width:1.0;" x1="1831" x2="1982" y1="724.2969" y2="724.2969"/><text fill="#000000" font-family="sans-serif" font-size="14" lengthAdjust="spacing" textLength="116" x="1836" y="741.292">int m_numTrees</text><line style="stroke:#A80036;stroke-width:1.0;" x1="1831" x2="1982" y1="748.5938" y2="748.5938"/><text fill="#000000" font-family="sans-serif" font-size="14" lengthAdjust="spacing" textLength="141" x="1836" y="765.5889">void SetNumTrees()</text></g><!--class CFarm--><g id="elem_CFarm"><rect codeLine="106" fill="#FEFECE" filter="url(#f4kb2p149filh)" height="80.5938" id="CFarm" style="stroke:#A80036;stroke-width:1.0;" width="155" x="2018" y="692.2969"/><ellipse cx="2068.25" cy="708.2969" fill="#ADD1B2" rx="11" ry="11" style="stroke:#A80036;stroke-width:1.0;"/><path d="M2070.5938,703.9688 C2069.6563,703.5313 2069.0625,703.3906 2068.1875,703.3906 C2065.5625,703.3906 2063.5625,705.4688 2063.5625,708.1875 L2063.5625,709.3125 C2063.5625,711.8906 2065.6719,713.7813 2068.5625,713.7813 C2069.7813,713.7813 2070.9375,713.4844 2071.6875,712.9375 C2072.2656,712.5313 2072.5938,712.0781 2072.5938,711.6875 C2072.5938,711.2344 2072.2031,710.8438 2071.7344,710.8438 C2071.5156,710.8438 2071.3125,710.9219 2071.125,711.1094 C2070.6719,711.5938 2070.6719,711.5938 2070.4844,711.6875 C2070.0625,711.9531 2069.375,712.0781 2068.6094,712.0781 C2066.5625,712.0781 2065.2656,710.9844 2065.2656,709.2813 L2065.2656,708.1875 C2065.2656,706.4063 2066.5156,705.0938 2068.25,705.0938 C2068.8281,705.0938 2069.4375,705.25 2069.9063,705.5 C2070.3906,705.7813 2070.5625,706 2070.6563,706.4063 C2070.7188,706.8125 2070.75,706.9375 2070.8906,707.0625 C2071.0313,707.2031 2071.2656,707.3125 2071.4844,707.3125 C2071.75,707.3125 2072.0156,707.1719 2072.1875,706.9531 C2072.2969,706.7969 2072.3281,706.6094 2072.3281,706.1875 L2072.3281,704.7656 C2072.3281,704.3281 2072.3125,704.2031 2072.2188,704.0469 C2072.0625,703.7813 2071.7813,703.6406 2071.4844,703.6406 C2071.1875,703.6406 2070.9844,703.7344 2070.7656,704.0469 L2070.5938,703.9688 Z " fill="#000000"/><text fill="#000000" font-family="sans-serif" font-size="14" lengthAdjust="spacing" textLength="46" x="2088.75" y="713.1436">CFarm</text><line style="stroke:#A80036;stroke-width:1.0;" x1="2019" x2="2172" y1="724.2969" y2="724.2969"/><text fill="#000000" font-family="sans-serif" font-size="14" lengthAdjust="spacing" textLength="118" x="2024" y="741.292">int m_numCrops</text><line style="stroke:#A80036;stroke-width:1.0;" x1="2019" x2="2172" y1="748.5938" y2="748.5938"/><text fill="#000000" font-family="sans-serif" font-size="14" lengthAdjust="spacing" textLength="143" x="2024" y="765.5889">void SetNumCrops()</text></g><!--class CMine--><g id="elem_CMine"><rect codeLine="110" fill="#FEFECE" filter="url(#f4kb2p149filh)" height="80.5938" id="CMine" style="stroke:#A80036;stroke-width:1.0;" width="146" x="2208.5" y="692.2969"/><ellipse cx="2255.25" cy="708.2969" fill="#ADD1B2" rx="11" ry="11" style="stroke:#A80036;stroke-width:1.0;"/><path d="M2257.5938,703.9688 C2256.6563,703.5313 2256.0625,703.3906 2255.1875,703.3906 C2252.5625,703.3906 2250.5625,705.4688 2250.5625,708.1875 L2250.5625,709.3125 C2250.5625,711.8906 2252.6719,713.7813 2255.5625,713.7813 C2256.7813,713.7813 2257.9375,713.4844 2258.6875,712.9375 C2259.2656,712.5313 2259.5938,712.0781 2259.5938,711.6875 C2259.5938,711.2344 2259.2031,710.8438 2258.7344,710.8438 C2258.5156,710.8438 2258.3125,710.9219 2258.125,711.1094 C2257.6719,711.5938 2257.6719,711.5938 2257.4844,711.6875 C2257.0625,711.9531 2256.375,712.0781 2255.6094,712.0781 C2253.5625,712.0781 2252.2656,710.9844 2252.2656,709.2813 L2252.2656,708.1875 C2252.2656,706.4063 2253.5156,705.0938 2255.25,705.0938 C2255.8281,705.0938 2256.4375,705.25 2256.9063,705.5 C2257.3906,705.7813 2257.5625,706 2257.6563,706.4063 C2257.7188,706.8125 2257.75,706.9375 2257.8906,707.0625 C2258.0313,707.2031 2258.2656,707.3125 2258.4844,707.3125 C2258.75,707.3125 2259.0156,707.1719 2259.1875,706.9531 C2259.2969,706.7969 2259.3281,706.6094 2259.3281,706.1875 L2259.3281,704.7656 C2259.3281,704.3281 2259.3125,704.2031 2259.2188,704.0469 C2259.0625,703.7813 2258.7813,703.6406 2258.4844,703.6406 C2258.1875,703.6406 2257.9844,703.7344 2257.7656,704.0469 L2257.5938,703.9688 Z " fill="#000000"/><text fill="#000000" font-family="sans-serif" font-size="14" lengthAdjust="spacing" textLength="44" x="2275.75" y="713.1436">CMine</text><line style="stroke:#A80036;stroke-width:1.0;" x1="2209.5" x2="2353.5" y1="724.2969" y2="724.2969"/><text fill="#000000" font-family="sans-serif" font-size="14" lengthAdjust="spacing" textLength="109" x="2214.5" y="741.292">int m_numOres</text><line style="stroke:#A80036;stroke-width:1.0;" x1="2209.5" x2="2353.5" y1="748.5938" y2="748.5938"/><text fill="#000000" font-family="sans-serif" font-size="14" lengthAdjust="spacing" textLength="134" x="2214.5" y="765.5889">void SetNumOres()</text></g><!--class IEvent--><g id="elem_IEvent"><rect codeLine="125" fill="#FEFECE" filter="url(#f4kb2p149filh)" height="194.6719" id="IEvent" style="stroke:#A80036;stroke-width:1.0;" width="161" x="720" y="290.7969"/><ellipse cx="774.25" cy="306.7969" fill="#B4A7E5" rx="11" ry="11" style="stroke:#A80036;stroke-width:1.0;"/><path d="M775.2031,303.5781 L776.9219,303.5781 C777.3125,303.5781 777.5,303.5469 777.625,303.4688 C777.8906,303.3125 778.0313,303.0313 778.0313,302.7344 C778.0313,302.4688 777.9219,302.2031 777.6875,302.0313 C777.5156,301.9219 777.375,301.8906 776.9219,301.8906 L771.7813,301.8906 C771.3438,301.8906 771.2188,301.9063 771.0625,302 C770.8125,302.1563 770.6563,302.4531 770.6563,302.7344 C770.6563,303.0156 770.7969,303.2656 771.0156,303.4375 C771.1719,303.5469 771.3594,303.5781 771.7813,303.5781 L773.5,303.5781 L773.5,310.0938 L771.7813,310.0938 C771.3438,310.0938 771.2188,310.1094 771.0625,310.2188 C770.8125,310.375 770.6563,310.6563 770.6563,310.9531 C770.6563,311.2031 770.7969,311.4688 771.0156,311.625 C771.1719,311.75 771.375,311.7969 771.7813,311.7969 L776.9219,311.7969 C777.6719,311.7969 778.0313,311.5156 778.0313,310.9531 C778.0313,310.6719 777.9219,310.4219 777.6875,310.25 C777.5156,310.125 777.375,310.0938 776.9219,310.0938 L775.2031,310.0938 L775.2031,303.5781 Z " fill="#000000"/><text fill="#000000" font-family="sans-serif" font-size="14" font-style="italic" lengthAdjust="spacing" textLength="44" x="794.75" y="311.6436">IEvent</text><line style="stroke:#A80036;stroke-width:1.0;" x1="721" x2="880" y1="322.7969" y2="322.7969"/><text fill="#000000" font-family="sans-serif" font-size="14" lengthAdjust="spacing" textLength="107" x="726" y="339.792">string m_name</text><text fill="#000000" font-family="sans-serif" font-size="14" lengthAdjust="spacing" textLength="149" x="726" y="356.0889">string m_description</text><text fill="#000000" font-family="sans-serif" font-size="14" lengthAdjust="spacing" textLength="105" x="726" y="372.3857">int m_duration</text><line style="stroke:#A80036;stroke-width:1.0;" x1="721" x2="880" y1="379.6875" y2="379.6875"/><text fill="#000000" font-family="sans-serif" font-size="14" lengthAdjust="spacing" textLength="79" x="726" y="396.6826">void start()</text><text fill="#000000" font-family="sans-serif" font-size="14" lengthAdjust="spacing" textLength="71" x="726" y="412.9795">void end()</text><text fill="#000000" font-family="sans-serif" font-size="14" lengthAdjust="spacing" textLength="95" x="726" y="429.2764">void update()</text><text fill="#000000" font-family="sans-serif" font-size="14" lengthAdjust="spacing" textLength="103" x="726" y="445.5732">bool isActive()</text><text fill="#000000" font-family="sans-serif" font-size="14" lengthAdjust="spacing" textLength="129" x="726" y="461.8701">void applyEffect()</text><text fill="#000000" font-family="sans-serif" font-size="14" lengthAdjust="spacing" textLength="134" x="726" y="478.167">void revertEffect()</text></g><!--class CHuricane--><g id="elem_CHuricane"><rect codeLine="136" fill="#FEFECE" filter="url(#f4kb2p149filh)" height="129.4844" id="CHuricane" style="stroke:#A80036;stroke-width:1.0;" width="152" x="628.5" y="668.2969"/><ellipse cx="665.1" cy="684.2969" fill="#ADD1B2" rx="11" ry="11" style="stroke:#A80036;stroke-width:1.0;"/><path d="M667.4438,679.9688 C666.5063,679.5313 665.9125,679.3906 665.0375,679.3906 C662.4125,679.3906 660.4125,681.4688 660.4125,684.1875 L660.4125,685.3125 C660.4125,687.8906 662.5219,689.7813 665.4125,689.7813 C666.6313,689.7813 667.7875,689.4844 668.5375,688.9375 C669.1156,688.5313 669.4438,688.0781 669.4438,687.6875 C669.4438,687.2344 669.0531,686.8438 668.5844,686.8438 C668.3656,686.8438 668.1625,686.9219 667.975,687.1094 C667.5219,687.5938 667.5219,687.5938 667.3344,687.6875 C666.9125,687.9531 666.225,688.0781 665.4594,688.0781 C663.4125,688.0781 662.1156,686.9844 662.1156,685.2813 L662.1156,684.1875 C662.1156,682.4063 663.3656,681.0938 665.1,681.0938 C665.6781,681.0938 666.2875,681.25 666.7563,681.5 C667.2406,681.7813 667.4125,682 667.5063,682.4063 C667.5688,682.8125 667.6,682.9375 667.7406,683.0625 C667.8813,683.2031 668.1156,683.3125 668.3344,683.3125 C668.6,683.3125 668.8656,683.1719 669.0375,682.9531 C669.1469,682.7969 669.1781,682.6094 669.1781,682.1875 L669.1781,680.7656 C669.1781,680.3281 669.1625,680.2031 669.0688,680.0469 C668.9125,679.7813 668.6313,679.6406 668.3344,679.6406 C668.0375,679.6406 667.8344,679.7344 667.6156,680.0469 L667.4438,679.9688 Z " fill="#000000"/><text fill="#000000" font-family="sans-serif" font-size="14" lengthAdjust="spacing" textLength="72" x="683.9" y="689.1436">CHuricane</text><line style="stroke:#A80036;stroke-width:1.0;" x1="629.5" x2="779.5" y1="700.2969" y2="700.2969"/><text fill="#000000" font-family="sans-serif" font-size="14" lengthAdjust="spacing" textLength="140" x="634.5" y="717.292">int m_damageLevel</text><text fill="#000000" font-family="sans-serif" font-size="14" lengthAdjust="spacing" textLength="105" x="634.5" y="733.5889">int m_duration</text><text fill="#000000" font-family="sans-serif" font-size="14" lengthAdjust="spacing" textLength="15" x="634.5" y="749.8857">...</text><line style="stroke:#A80036;stroke-width:1.0;" x1="629.5" x2="779.5" y1="757.1875" y2="757.1875"/><text fill="#000000" font-family="sans-serif" font-size="14" lengthAdjust="spacing" textLength="129" x="634.5" y="774.1826">void applyEffect()</text><text fill="#000000" font-family="sans-serif" font-size="14" lengthAdjust="spacing" textLength="71" x="634.5" y="790.4795">void end()</text></g><!--class CBlessing--><g id="elem_CBlessing"><rect codeLine="143" fill="#FEFECE" filter="url(#f4kb2p149filh)" height="129.4844" id="CBlessing" style="stroke:#A80036;stroke-width:1.0;" width="154" x="815.5" y="668.2969"/><ellipse cx="854.35" cy="684.2969" fill="#ADD1B2" rx="11" ry="11" style="stroke:#A80036;stroke-width:1.0;"/><path d="M856.6938,679.9688 C855.7563,679.5313 855.1625,679.3906 854.2875,679.3906 C851.6625,679.3906 849.6625,681.4688 849.6625,684.1875 L849.6625,685.3125 C849.6625,687.8906 851.7719,689.7813 854.6625,689.7813 C855.8813,689.7813 857.0375,689.4844 857.7875,688.9375 C858.3656,688.5313 858.6938,688.0781 858.6938,687.6875 C858.6938,687.2344 858.3031,686.8438 857.8344,686.8438 C857.6156,686.8438 857.4125,686.9219 857.225,687.1094 C856.7719,687.5938 856.7719,687.5938 856.5844,687.6875 C856.1625,687.9531 855.475,688.0781 854.7094,688.0781 C852.6625,688.0781 851.3656,686.9844 851.3656,685.2813 L851.3656,684.1875 C851.3656,682.4063 852.6156,681.0938 854.35,681.0938 C854.9281,681.0938 855.5375,681.25 856.0063,681.5 C856.4906,681.7813 856.6625,682 856.7563,682.4063 C856.8188,682.8125 856.85,682.9375 856.9906,683.0625 C857.1313,683.2031 857.3656,683.3125 857.5844,683.3125 C857.85,683.3125 858.1156,683.1719 858.2875,682.9531 C858.3969,682.7969 858.4281,682.6094 858.4281,682.1875 L858.4281,680.7656 C858.4281,680.3281 858.4125,680.2031 858.3188,680.0469 C858.1625,679.7813 857.8813,679.6406 857.5844,679.6406 C857.2875,679.6406 857.0844,679.7344 856.8656,680.0469 L856.6938,679.9688 Z " fill="#000000"/><text fill="#000000" font-family="sans-serif" font-size="14" lengthAdjust="spacing" textLength="69" x="873.65" y="689.1436">CBlessing</text><line style="stroke:#A80036;stroke-width:1.0;" x1="816.5" x2="968.5" y1="700.2969" y2="700.2969"/><text fill="#000000" font-family="sans-serif" font-size="14" lengthAdjust="spacing" textLength="142" x="821.5" y="717.292">int m_blessingLevel</text><text fill="#000000" font-family="sans-serif" font-size="14" lengthAdjust="spacing" textLength="105" x="821.5" y="733.5889">int m_duration</text><text fill="#000000" font-family="sans-serif" font-size="14" lengthAdjust="spacing" textLength="15" x="821.5" y="749.8857">...</text><line style="stroke:#A80036;stroke-width:1.0;" x1="816.5" x2="968.5" y1="757.1875" y2="757.1875"/><text fill="#000000" font-family="sans-serif" font-size="14" lengthAdjust="spacing" textLength="129" x="821.5" y="774.1826">void applyEffect()</text><text fill="#000000" font-family="sans-serif" font-size="14" lengthAdjust="spacing" textLength="71" x="821.5" y="790.4795">void end()</text></g><!--class CFamine--><g id="elem_CFamine"><rect codeLine="150" fill="#FEFECE" filter="url(#f4kb2p149filh)" height="129.4844" id="CFamine" style="stroke:#A80036;stroke-width:1.0;" width="141" x="1005" y="668.2969"/><ellipse cx="1041.15" cy="684.2969" fill="#ADD1B2" rx="11" ry="11" style="stroke:#A80036;stroke-width:1.0;"/><path d="M1043.4938,679.9688 C1042.5563,679.5313 1041.9625,679.3906 1041.0875,679.3906 C1038.4625,679.3906 1036.4625,681.4688 1036.4625,684.1875 L1036.4625,685.3125 C1036.4625,687.8906 1038.5719,689.7813 1041.4625,689.7813 C1042.6813,689.7813 1043.8375,689.4844 1044.5875,688.9375 C1045.1656,688.5313 1045.4938,688.0781 1045.4938,687.6875 C1045.4938,687.2344 1045.1031,686.8438 1044.6344,686.8438 C1044.4156,686.8438 1044.2125,686.9219 1044.025,687.1094 C1043.5719,687.5938 1043.5719,687.5938 1043.3844,687.6875 C1042.9625,687.9531 1042.275,688.0781 1041.5094,688.0781 C1039.4625,688.0781 1038.1656,686.9844 1038.1656,685.2813 L1038.1656,684.1875 C1038.1656,682.4063 1039.4156,681.0938 1041.15,681.0938 C1041.7281,681.0938 1042.3375,681.25 1042.8063,681.5 C1043.2906,681.7813 1043.4625,682 1043.5563,682.4063 C1043.6188,682.8125 1043.65,682.9375 1043.7906,683.0625 C1043.9313,683.2031 1044.1656,683.3125 1044.3844,683.3125 C1044.65,683.3125 1044.9156,683.1719 1045.0875,682.9531 C1045.1969,682.7969 1045.2281,682.6094 1045.2281,682.1875 L1045.2281,680.7656 C1045.2281,680.3281 1045.2125,680.2031 1045.1188,680.0469 C1044.9625,679.7813 1044.6813,679.6406 1044.3844,679.6406 C1044.0875,679.6406 1043.8844,679.7344 1043.6656,680.0469 L1043.4938,679.9688 Z " fill="#000000"/><text fill="#000000" font-family="sans-serif" font-size="14" lengthAdjust="spacing" textLength="62" x="1059.85" y="689.1436">CFamine</text><line style="stroke:#A80036;stroke-width:1.0;" x1="1006" x2="1145" y1="700.2969" y2="700.2969"/><text fill="#000000" font-family="sans-serif" font-size="14" lengthAdjust="spacing" textLength="109" x="1011" y="717.292">int m_intensity</text><text fill="#000000" font-family="sans-serif" font-size="14" lengthAdjust="spacing" textLength="105" x="1011" y="733.5889">int m_duration</text><text fill="#000000" font-family="sans-serif" font-size="14" lengthAdjust="spacing" textLength="15" x="1011" y="749.8857">...</text><line style="stroke:#A80036;stroke-width:1.0;" x1="1006" x2="1145" y1="757.1875" y2="757.1875"/><text fill="#000000" font-family="sans-serif" font-size="14" lengthAdjust="spacing" textLength="129" x="1011" y="774.1826">void applyEffect()</text><text fill="#000000" font-family="sans-serif" font-size="14" lengthAdjust="spacing" textLength="71" x="1011" y="790.4795">void end()</text></g><g id="elem_GMN6"><path d="M6,97.7969 L6,153.1953 L301,153.1953 L301,107.7969 L291,97.7969 L6,97.7969 " fill="#FBFB77" filter="url(#f4kb2p149filh)" style="stroke:#A80036;stroke-width:1.0;"/><path d="M291,97.7969 L291,107.7969 L301,107.7969 L291,97.7969 " fill="#FBFB77" style="stroke:#A80036;stroke-width:1.0;"/><text fill="#000000" font-family="sans-serif" font-size="13" lengthAdjust="spacing" textLength="270" x="12" y="114.8638">GameControll may seem overly cluttered,</text><text fill="#000000" font-family="sans-serif" font-size="13" lengthAdjust="spacing" textLength="229" x="12" y="129.9966">however it will be left this way for a</text><text fill="#000000" font-family="sans-serif" font-size="13" lengthAdjust="spacing" textLength="182" x="12" y="145.1294">while to be more descriptive</text></g><!--class IOnScreenObj--><g id="elem_IOnScreenObj"><rect codeLine="115" fill="#FEFECE" filter="url(#f4kb2p149filh)" height="162.0781" id="IOnScreenObj" style="stroke:#A80036;stroke-width:1.0;" width="380" x="1188.5" y="44.2969"/><ellipse cx="1325.25" cy="60.2969" fill="#B4A7E5" rx="11" ry="11" style="stroke:#A80036;stroke-width:1.0;"/><path d="M1326.2031,57.0781 L1327.9219,57.0781 C1328.3125,57.0781 1328.5,57.0469 1328.625,56.9688 C1328.8906,56.8125 1329.0313,56.5313 1329.0313,56.2344 C1329.0313,55.9688 1328.9219,55.7031 1328.6875,55.5313 C1328.5156,55.4219 1328.375,55.3906 1327.9219,55.3906 L1322.7813,55.3906 C1322.3438,55.3906 1322.2188,55.4063 1322.0625,55.5 C1321.8125,55.6563 1321.6563,55.9531 1321.6563,56.2344 C1321.6563,56.5156 1321.7969,56.7656 1322.0156,56.9375 C1322.1719,57.0469 1322.3594,57.0781 1322.7813,57.0781 L1324.5,57.0781 L1324.5,63.5938 L1322.7813,63.5938 C1322.3438,63.5938 1322.2188,63.6094 1322.0625,63.7188 C1321.8125,63.875 1321.6563,64.1563 1321.6563,64.4531 C1321.6563,64.7031 1321.7969,64.9688 1322.0156,65.125 C1322.1719,65.25 1322.375,65.2969 1322.7813,65.2969 L1327.9219,65.2969 C1328.6719,65.2969 1329.0313,65.0156 1329.0313,64.4531 C1329.0313,64.1719 1328.9219,63.9219 1328.6875,63.75 C1328.5156,63.625 1328.375,63.5938 1327.9219,63.5938 L1326.2031,63.5938 L1326.2031,57.0781 Z " fill="#000000"/><text fill="#000000" font-family="sans-serif" font-size="14" font-style="italic" lengthAdjust="spacing" textLength="98" x="1345.75" y="65.1436">IOnScreenObj</text><line style="stroke:#A80036;stroke-width:1.0;" x1="1189.5" x2="1567.5" y1="76.2969" y2="76.2969"/><text fill="#000000" font-family="sans-serif" font-size="14" lengthAdjust="spacing" textLength="82" x="1194.5" y="93.292">double m_x</text><text fill="#000000" font-family="sans-serif" font-size="14" lengthAdjust="spacing" textLength="82" x="1194.5" y="109.5889">double m_y</text><text fill="#000000" font-family="sans-serif" font-size="14" lengthAdjust="spacing" textLength="192" x="1194.5" y="125.8857">SDL_Rect m_currentFrame</text><text fill="#000000" font-family="sans-serif" font-size="14" lengthAdjust="spacing" textLength="181" x="1194.5" y="142.1826">SDL_Texture * m_texture</text><text fill="#000000" font-family="sans-serif" font-size="14" lengthAdjust="spacing" textLength="110" x="1194.5" y="158.4795">~IOnScreenObj</text><line style="stroke:#A80036;stroke-width:1.0;" x1="1189.5" x2="1567.5" y1="165.7813" y2="165.7813"/><text fill="#000000" font-family="sans-serif" font-size="14" lengthAdjust="spacing" textLength="368" x="1194.5" y="182.7764">IOnScreenObj(double x, double y, SDL_Texture * tx)</text><text fill="#000000" font-family="sans-serif" font-size="14" lengthAdjust="spacing" textLength="128" x="1194.5" y="199.0732">getter functions()</text></g><!--link GMN6 to GameControll--><g id="link_GMN6_GameControll"><path d="M153.5,153.2469 C153.5,169.6569 153.5,192.1646 153.5,216.7751 C153.5,222.9277 153.5,229.2117 153.5,235.5647 C153.5,236.3588 153.5,237.1541 153.5,237.9502 C153.5,238.3483 153.5,238.7466 153.5,239.1452 " fill="none" id="GMN6-GameControll" style="stroke:#A80036;stroke-width:1.0;stroke-dasharray:7.0,7.0;"/></g><!--link CGameManager to CTilemap--><g id="link_CGameManager_CTilemap"><path codeLine="158" d="M556.397,857.1749 C574.116,871.5549 593.027,884.8059 612.5,895.2969 C802.929,997.8889 1051.14,1042.9339 1210.69,1062.2969 " fill="none" id="CGameManager-CTilemap" style="stroke:#A80036;stroke-width:1.0;"/></g><!--link CBuilding to CTile--><g id="link_CBuilding_CTile"><path codeLine="159" d="M1718.8,458.1949 C1664.5,501.8539 1592.76,559.5319 1529.16,610.6709 " fill="none" id="CBuilding-CTile" style="stroke:#A80036;stroke-width:1.0;"/><text fill="#000000" font-family="sans-serif" font-size="13" lengthAdjust="spacing" textLength="8" x="1703.0914" y="460.6486">1</text><text fill="#000000" font-family="sans-serif" font-size="13" lengthAdjust="spacing" textLength="24" x="1513.6096" y="599.8561">0..1</text></g><!--link CGameManager to CPlayerState--><g id="link_CGameManager_CPlayerState"><path codeLine="160" d="M440.5,895.5189 C440.5,933.6239 440.5,972.3589 440.5,1004.1489 " fill="none" id="CGameManager-CPlayerState" style="stroke:#A80036;stroke-width:1.0;"/></g><!--link CRenderWindow to CGameManager--><g id="link_CRenderWindow_CGameManager"><path codeLine="161" d="M393.272,493.9189 C398.056,518.0179 403.255,544.2019 408.396,570.0949 " fill="none" id="CRenderWindow-CGameManager" style="stroke:#A80036;stroke-width:1.0;"/></g><!--reverse link IEvent to CGameManager--><g id="link_IEvent_CGameManager"><path codeLine="162" d="M714.051,471.3049 C682.124,501.6109 645.651,536.2539 612.5,567.7969 C594.266,585.1459 574.956,603.5379 556.118,621.4919 " fill="none" id="IEvent-backto-CGameManager" style="stroke:#A80036;stroke-width:1.0;"/><line style="stroke:#A80036;stroke-width:1.0;" x1="714.1556" x2="719.957" y1="471.2074" y2="459.8975"/><line style="stroke:#A80036;stroke-width:1.0;" x1="714.1556" x2="719.957" y1="471.2074" y2="471.5003"/><line style="stroke:#A80036;stroke-width:1.0;" x1="714.1556" x2="719.957" y1="471.2074" y2="465.6989"/></g><!--reverse link IEvent to CHuricane--><g id="link_IEvent_CHuricane"><path codeLine="163" d="M772.025,490.8889 C755.909,548.3849 736.254,618.5089 722.315,668.2399 " fill="none" id="IEvent-backto-CHuricane" style="stroke:#A80036;stroke-width:1.0;"/><polygon fill="#A80036" points="773.375,486.0699,767.0956,493.6573,772.0263,490.8845,774.7991,495.8152,773.375,486.0699" style="stroke:#A80036;stroke-width:1.0;"/></g><!--reverse link IEvent to CBlessing--><g id="link_IEvent_CBlessing"><path codeLine="164" d="M827.882,491.2349 C843.309,548.6659 862.096,618.6079 875.428,668.2399 " fill="none" id="IEvent-backto-CBlessing" style="stroke:#A80036;stroke-width:1.0;"/><polygon fill="#A80036" points="826.495,486.0699,824.9669,495.7995,827.7922,490.8987,832.693,493.7239,826.495,486.0699" style="stroke:#A80036;stroke-width:1.0;"/></g><!--reverse link IEvent to CFamine--><g id="link_IEvent_CFamine"><path codeLine="165" d="M885.178,460.2569 C919.093,491.1789 957.027,529.1549 986.5,567.7969 C1010.07,598.7059 1031.1,636.6729 1046.79,668.2899 " fill="none" id="IEvent-backto-CFamine" style="stroke:#A80036;stroke-width:1.0;"/><polygon fill="#A80036" points="881.062,456.5209,885.0372,465.5319,884.7641,459.8816,890.4143,459.6085,881.062,456.5209" style="stroke:#A80036;stroke-width:1.0;"/></g><!--reverse link IOnScreenObj to CRenderWindow--><g id="link_IOnScreenObj_CRenderWindow"><path codeLine="166" d="M1180.03,140.8069 C988.443,156.7069 713.041,185.1469 612.5,223.2969 C574.164,237.8449 535.987,259.6789 501.73,282.7079 " fill="none" id="IOnScreenObj-backto-CRenderWindow" style="stroke:#A80036;stroke-width:1.0;"/><line style="stroke:#A80036;stroke-width:1.0;" x1="1180.257" x2="1188.23" y1="140.7841" y2="132.1539"/><line style="stroke:#A80036;stroke-width:1.0;" x1="1180.257" x2="1188.23" y1="140.7841" y2="148.0998"/><line style="stroke:#A80036;stroke-width:1.0;" x1="1180.257" x2="1188.23" y1="140.7841" y2="140.1269"/></g><!--reverse link CTile to CTilemap--><g id="link_CTile_CTilemap"><path codeLine="167" d="M1375.48,863.0849 C1374.77,893.3039 1374.03,925.3799 1373.33,955.2249 " fill="none" id="CTile-backto-CTilemap" style="stroke:#A80036;stroke-width:1.0;"/><line style="stroke:#A80036;stroke-width:1.0;" x1="1375.4829" x2="1367.6722" y1="863.0297" y2="855.0319"/><line style="stroke:#A80036;stroke-width:1.0;" x1="1375.4829" x2="1383.6678" y1="863.0297" y2="855.0319"/><line style="stroke:#A80036;stroke-width:1.0;" x1="1375.4829" x2="1375.67" y1="863.0297" y2="855.0319"/></g><!--reverse link CBuilding to CHouse--><g id="link_CBuilding_CHouse"><path codeLine="168" d="M1766.94,515.4019 C1748.32,577.9569 1727.11,649.1659 1714.27,692.2719 " fill="none" id="CBuilding-backto-CHouse" style="stroke:#A80036;stroke-width:1.0;"/><polygon fill="#A80036" points="1768.4,510.5319,1762.001,518.0187,1766.975,515.3245,1769.6692,520.2986,1768.4,510.5319" style="stroke:#A80036;stroke-width:1.0;"/></g><!--reverse link CBuilding to CLumberjack--><g id="link_CBuilding_CLumberjack"><path codeLine="169" d="M1842.06,515.4019 C1860.68,577.9569 1881.89,649.1659 1894.73,692.2719 " fill="none" id="CBuilding-backto-CLumberjack" style="stroke:#A80036;stroke-width:1.0;"/><polygon fill="#A80036" points="1840.6,510.5319,1839.3308,520.2986,1842.025,515.3245,1846.999,518.0187,1840.6,510.5319" style="stroke:#A80036;stroke-width:1.0;"/></g><!--reverse link CBuilding to CFarm--><g id="link_CBuilding_CFarm"><path codeLine="170" d="M1893.94,460.4419 C1929.5,491.2429 1969.28,529.0789 2000.5,567.7969 C2032,606.8599 2059.68,657.5809 2076.92,692.2079 " fill="none" id="CBuilding-backto-CFarm" style="stroke:#A80036;stroke-width:1.0;"/><polygon fill="#A80036" points="1890.07,457.1039,1894.2643,466.015,1893.8532,460.3731,1899.495,459.9619,1890.07,457.1039" style="stroke:#A80036;stroke-width:1.0;"/></g><!--reverse link CBuilding to CMine--><g id="link_CBuilding_CMine"><path codeLine="171" d="M1895.14,413.3979 C1979.84,439.7139 2105.65,488.9579 2190.5,567.7969 C2227.71,602.3729 2253.36,655.7089 2267.73,692.1019 " fill="none" id="CBuilding-backto-CMine" style="stroke:#A80036;stroke-width:1.0;"/><polygon fill="#A80036" points="1890.12,411.8529,1897.5438,418.3249,1894.8985,413.3247,1899.8987,410.6794,1890.12,411.8529" style="stroke:#A80036;stroke-width:1.0;"/></g><!--reverse link IOnScreenObj to CTile--><g id="link_IOnScreenObj_CTile"><path codeLine="172" d="M1378.5,211.5969 C1378.5,315.7089 1378.5,492.4469 1378.5,610.6319 " fill="none" id="IOnScreenObj-backto-CTile" style="stroke:#A80036;stroke-width:1.0;"/><polygon fill="#A80036" points="1378.5,206.3869,1374.5,215.3869,1378.5,211.3869,1382.5,215.3869,1378.5,206.3869" style="stroke:#A80036;stroke-width:1.0;"/></g><!--reverse link IOnScreenObj to CBuilding--><g id="link_IOnScreenObj_CBuilding"><path codeLine="173" d="M1513.62,209.0769 C1580.81,250.2479 1660,298.7639 1718.77,334.7729 " fill="none" id="IOnScreenObj-backto-CBuilding" style="stroke:#A80036;stroke-width:1.0;"/><polygon fill="#A80036" points="1509.21,206.3769,1514.7983,214.4868,1513.4746,208.987,1518.9745,207.6634,1509.21,206.3769" style="stroke:#A80036;stroke-width:1.0;"/></g><!--SRC=[jLPRRzis57xFho3yKDX1RAplGO34RTO0oJB47h810m9QeYqc4gcIb1qly7xx3c_IeUIqnR01kOZVkLz9_S85KLAp4qBWnt1JCZAQSxEVhXfUvbnio8PMREJfrmg-oS_mPow5KR8ioPkdP2NLcimVcCYPUkGYbpj78cJnwVOf0AUaUjgvpvRY1PXoD1KEZfhe6cTIQ4EoWbfEv-OPuSAGdVzNJ9pCdt-dKfFMpfAzcaOn42ubpSCfrRhc9NkggGcwjfBd41QZQf4fniGOmTxHyP9y89WxvxekwHvpQhfbZrALEGQj2nruwD9dCtj71Tr0Gdpsvh-2GgOMXXe66TBk_p0_RMBbwjbJbn1DHMiW6F_bpRFCI7K-lmh5lS1e8_ZN1b9WrFdDvoqJviAJmQWorhKGGqqRpT1PCTrK6037q8dcUJJN2bHootfWK-SGcvLpmGQqe28lsOse6vCWpZ_TwhEPG2Pjrj7HvhizedJZtFfqsrxIcLIiFK5mib4PknmWLmuXP3QRfVNMoF-stXru2Bz2WbaZQoBNwKWvmGIfw9venYe2QLFb7lnlZ859oSyySo5t32Y4mq1mu5ynKhAr8QRWckn0U2qLePvtLq0_W5tBL46a96SwKxmsV6kZXbGwpqxyhD_H-grBM6ogDzmsiQSiyU8YD9nkq-NF2_uNB9QIlp3mG_ESsQZXwsj3bTikaNd7SrEWSy7ufZ19Ju_Tu5k-CFoEnNz7M-q-Y39u9fcng5FpwiNsPruxERKA9fqvShevmZqXRdEqRWBFe_LdV8JmnNbtZB8ClYOql5_I4V_W9posK5gLK99SDglIBehNzBW_iWYXCFxRHnl7qL7YykyICGww80NX2tAMA0pQaiptqjwEFB8MJKtwRcmGFyvGC0_atz_1_qZmn4cRzh3y_qNM3s4geb_QfPskj54qCx4URGXlg8ypYOfVFN6xqIxxm1K2P6DwB1x1FAAfu1vvOSgFsqhAqghIrWCKc7C8b-AtUgDedbJd4-paaki2OvTQyutm5X9nGViKj5M_IBWUajZ1pGTcXnvMTgTbmSmlYD1NSzjKAwQUQVRIrxM4wtYWnu5z7TTKLNtfkPBrGDg1VUaxBWPntAkXQOkDOuCuNgRMD6FavbxujyFzwlc71_G1rgdjbqP1FnhNRzyTNcpe-uDAp6iSKYpe89WFy9wi6v4P3kCHul9jxovT5mYAiGFjIq7PleTCHQzRfBrbf40PpHj5MyXl2VlOmCq6muYF_faG4DVmN5zczlB2NBIko_tdzHfocRxRu9Oq2CTjsoYUqLx5Srh1O-mMnCflUlsElSvt_qX0vgxWZjJz9R4AuFzXy9fM_NwsLHGQ7ll_ZIbhB7d2JgVjdNs2L_leusWw7VqqctqSEVf03XQkc2Rlim5BKqzxJs1W2Srui8OHTqSvjvHOwHuSAzA3VTvEqY7p9h3va_XWEBmNjRTjb-CGxfRTa6QNs12zE-BKUJHzb13b_m40]--></g></svg>